# xmcd
#
# Track frame offsets: 
#        150
#        20700
#        41213
#        58159
#        79710
#        100101
#        119462
#        144198
#        160579
#        193410
#        207908
#        230586
#        251002
#        277378
#
# Disc length: 3905 seconds
#
# Revision: 1
# Processed by: cddbd v1.5.2PL0 Copyright (c) Steve Scherf et al.
# Submitted via: ExactAudioCopyFreeDBPlugin 1.0
#
DISCID=d10f3f0e
DTITLE=Stan Ridgway - The Big Heat
DYEAR=1986
DGENRE=Rock
TTITLE0=The Big Heat
TTITLE1=Pick It Up
TTITLE2=Can't Stop The Show
TTITLE3=Pile Driver
TTITLE4=Walkin' Home Alone
TTITLE5=Drive She Said
TTITLE6=Salesman
TTITLE7=Twisted
TTITLE8=Camouflage
TTITLE9=Rio Greyhound
TTITLE10=Stormy Side Of Town
TTITLE11=Foggy River
TTITLE12=End Of The Line
TTITLE13=Nadine
EXTD=
EXTT0=
EXTT1=
EXTT2=
EXTT3=
EXTT4=
EXTT5=
EXTT6=
EXTT7=
EXTT8=
EXTT9=
EXTT10=
EXTT11=
EXTT12=
EXTT13=
PLAYORDER=
